<?xml version="1.0" encoding="utf-8"?>
<!-- Generator: Adobe Illustrator 23.0.1, SVG Export Plug-In . SVG Version: 6.00 Build 0)  -->
<svg version="1.1" id="b5af49bb-b434-42e5-8156-b17ed4a71ac7"
	 xmlns="http://www.w3.org/2000/svg" xmlns:xlink="http://www.w3.org/1999/xlink" x="0px" y="0px" viewBox="0 0 85.2 85.2"
	 style="enable-background:new 0 0 85.2 85.2;" xml:space="preserve">
<style type="text/css">
	.st0{fill:#12B558;}
	.st1{opacity:0.18;fill:url(#SVGID_1_);enable-background:new    ;}
	.st2{fill:#FFFFFF;}
</style>
<title>Apply-for-advanced</title>
<g>
	<circle class="st0" cx="42.7" cy="42.7" r="42.6"/>
	
		<linearGradient id="SVGID_1_" gradientUnits="userSpaceOnUse" x1="61.3645" y1="-202.494" x2="50.8845" y2="-182.494" gradientTransform="matrix(1 0 0 -1 0 -124.85)">
		<stop  offset="0" style="stop-color:#000000;stop-opacity:0.22"/>
		<stop  offset="0.13" style="stop-color:#000000;stop-opacity:0.49"/>
		<stop  offset="1" style="stop-color:#000000"/>
	</linearGradient>
	<path class="st1" d="M9.5,69.2c14.8,18.2,41.7,21,59.9,6.2c14.3-11.7,19.5-31.3,12.8-48.5L9.5,69.2z"/>
	<path class="st2" d="M65.5,55.4c-0.1-0.9-0.2-1.8-0.4-2.7c0-0.2-0.1-0.4-0.1-0.6c0.6-0.2,1.1-0.4,1.7-0.6c0.8,1.2,1.3,2.5,1.5,3.9
		C68.2,55.4,65.5,55.4,65.5,55.4z M64.6,61.7c0.4,0.1,0.8,0.2,1,0.3c-0.5,0.5-1.1,0.9-1.7,1.3C64.2,62.8,64.4,62.2,64.6,61.7z
		 M60.7,61c0.6,0,1.2,0.1,1.8,0.2l0.7,0.1c-0.3,0.9-0.8,1.8-1.3,2.7v0.1c-0.4,0.1-0.8,0.2-1.2,0.2V61L60.7,61z M55.3,61.7
		c0.2,0.5,0.4,1.1,0.6,1.6c-0.6-0.3-1.1-0.7-1.6-1.2C54.6,61.9,55,61.8,55.3,61.7z M55.3,50.7c-0.4-0.1-0.7-0.2-1.1-0.4
		c0.5-0.5,1.1-0.9,1.7-1.3C55.7,49.5,55.5,50,55.3,50.7L55.3,50.7z M60.7,56.9H64c0,1-0.2,2-0.4,3l-0.8-0.2
		c-0.7-0.1-1.4-0.2-2.1-0.2V56.9L60.7,56.9z M59.2,56.9v2.7c-1,0-1.9,0.2-2.9,0.4c-0.2-1-0.4-2-0.4-3L59.2,56.9z M56.3,52.5l0.8,0.2
		c0.7,0.1,1.3,0.2,2,0.2v2.6h-3.3c0-0.8,0.1-1.6,0.3-2.5C56.3,52.8,56.3,52.6,56.3,52.5z M63.7,53.1c0.2,0.8,0.3,1.6,0.3,2.4h-3.4
		v-2.6c1,0,2-0.1,2.9-0.3C63.6,52.7,63.7,52.9,63.7,53.1L63.7,53.1z M64,49.1c0.6,0.3,1.2,0.8,1.7,1.3c-0.3,0.1-0.7,0.3-1.1,0.4
		C64.4,50.1,64.2,49.5,64,49.1L64,49.1z M61.9,48.3c0.5,0.9,0.9,1.9,1.3,2.9c-0.8,0.2-1.7,0.3-2.5,0.3V48
		C61.1,48,61.5,48.1,61.9,48.3L61.9,48.3z M59.2,48v3.4c-0.6,0-1.1-0.1-1.7-0.2l-0.8-0.1c0.3-1,0.7-1.9,1.2-2.8
		C58.3,48.1,58.8,48,59.2,48L59.2,48z M53.2,51.5c0.6,0.2,1.1,0.4,1.7,0.6l-0.1,0.5c-0.2,0.9-0.3,1.9-0.3,2.8h-2.7
		C51.9,54,52.4,52.7,53.2,51.5L53.2,51.5z M51.7,57h2.7c0,1.1,0.2,2.3,0.5,3.4c-0.6,0.2-1.1,0.4-1.7,0.6
		C52.4,59.8,51.9,58.4,51.7,57L51.7,57z M58,64.2c-0.5-0.9-0.9-1.8-1.3-2.8c0.8-0.2,1.6-0.3,2.5-0.3v3.3
		C58.8,64.3,58.4,64.2,58,64.2L58,64.2z M66.6,60.9c-0.5-0.2-1.1-0.4-1.6-0.6c0.3-1.1,0.4-2.3,0.5-3.4h2.7
		C68,58.4,67.5,59.7,66.6,60.9L66.6,60.9z M59.9,46.5c-5.3,0-9.7,4.3-9.7,9.7c0,5.3,4.3,9.7,9.7,9.7c5.3,0,9.7-4.3,9.7-9.7l0,0
		C69.6,50.8,65.3,46.5,59.9,46.5z"/>
	<path class="st2" d="M37.6,37.3L37.5,36v-0.1c0-0.1,0-0.2,0-0.4v-1.8c1-0.2,8-1.4,10.3-5.2c1,1.5,2.3,2.8,3.8,3.8v3.2
		c0,0.1,0,0.2,0,0.3c0,0,0,0,0,0.1l-0.3,0.8c-0.1,0.3-0.1,0.6-0.2,0.9c-0.1,0.6-0.3,1.2-0.5,1.8c-0.2,0.4,0,0.8,0.3,1l0,0
		c0.1,0,0.2,0.1,0.3,0.1c0.3,0,0.6-0.2,0.7-0.4c0.3-0.7,0.5-1.4,0.6-2.2l0.1-0.3c0.2,0.1,0.4,0.2,0.7,0.3v0.6c0,1.5-1.2,2.6-2.6,2.6
		l0,0h-4.1c-0.1-0.5-0.6-0.9-1.2-0.9h-1.7c-0.6,0-1.2,0.5-1.2,1.2l0,0c0,0.6,0.5,1.2,1.2,1.2h4.2l0,0l0,0L46,44
		c-1,0.7-2.3,0.7-3.3,0l-1.8-1.3l0,0C39.1,41.3,37.9,39.4,37.6,37.3z M35.1,36.5h-0.2c-0.5,0-0.9-0.4-0.9-0.9l0,0v-4.1
		c0-0.5,0.4-0.9,0.9-0.9l0,0h0.2c0.5,0,0.9,0.4,0.9,0.9l0,0v4C36.1,36,35.7,36.4,35.1,36.5C35.2,36.5,35.2,36.5,35.1,36.5z
		 M55.1,31.5v4c0,0.5-0.3,1-0.9,1h-0.1h-0.2c-0.5,0-0.9-0.4-0.9-0.9l0,0v-4.1c0-0.5,0.4-0.9,0.9-0.9l0,0h0.2
		C54.6,30.6,55,31,55.1,31.5L55.1,31.5z M44.6,51.4l-4.5-4.3l0.4-3l1.4,1l0,0c0.7,0.5,1.6,0.7,2.5,0.8c0.9,0,1.7-0.3,2.5-0.8l0,0
		l1.3-0.9l0.4,3L44.6,51.4z M42.4,54.3c-0.2,0.3-0.2,0.6,0,0.8l1.4,2l-2.1,6.7l-4.8-7.9c-0.1-0.1-0.1-0.3,0-0.4l2.2-2.3
		c0.1-0.1,0.1-0.3,0-0.5c0,0-0.1-0.1-0.2-0.1l-3-0.5c-0.2,0-0.3-0.2-0.3-0.3s0-0.1,0.1-0.2l3.4-3.5l0,0l4.5,4.3L42.4,54.3z
		 M49.9,47.1l-0.5-3.9c0.3-0.2,0.5-0.4,0.8-0.7h0.5c2.3,0,4.1-1.8,4.1-4.1v-0.6c1-0.3,1.8-1.3,1.8-2.3v-4c0-1.1-0.7-2-1.8-2.3v-0.8
		c0-5.6-4.6-10.2-10.2-10.2s-10.2,4.6-10.2,10.2v0.7c-1.1,0.3-1.9,1.2-1.9,2.3v4c0,1.3,1.1,2.4,2.4,2.4l0,0h0.2
		c0.4,0,0.8-0.1,1.1-0.3c0.3,2.1,1.4,4,3,5.4l-0.5,3.8l-11.3,3.2l0,0c-1.8,0.5-3.2,2-3.8,3.8v0.1l-1.8,11c0,0.2,0,0.4,0.2,0.6
		c0.1,0.2,0.3,0.3,0.6,0.3h19.6h0.2h5c0.2,0,0.5-0.1,0.6-0.3c0.1-0.2,0.2-0.4,0.1-0.7l-2.7-7.6l1.4-2c0.2-0.3,0.2-0.6,0-0.8
		l-1.3-1.8l4.2-4.6C50,47.7,50,47.3,49.9,47.1z"/>
</g>
</svg>
