<?xml version="1.0" encoding="utf-8"?>
<!-- Generator: Adobe Illustrator 23.0.1, SVG Export Plug-In . SVG Version: 6.00 Build 0)  -->
<svg version="1.1" id="ae0fb777-15e4-422a-8559-6234876bbcfa"
	 xmlns="http://www.w3.org/2000/svg" xmlns:xlink="http://www.w3.org/1999/xlink" x="0px" y="0px" viewBox="0 0 85.2 85.2"
	 style="enable-background:new 0 0 85.2 85.2;" xml:space="preserve">
<style type="text/css">
	.st0{fill:#6B8E23;}
	.st1{opacity:0.18;fill:url(#SVGID_1_);enable-background:new    ;}
	.st2{fill:#FFFFFF;}
</style>
<title>calendar</title>
<g>
	<circle class="st0" cx="42.6" cy="42.6" r="42.6"/>
	
		<linearGradient id="SVGID_1_" gradientUnits="userSpaceOnUse" x1="61.4744" y1="9.5662" x2="50.9944" y2="29.5662" gradientTransform="matrix(1 0 0 -1 0 87.19)">
		<stop  offset="0" style="stop-color:#000000;stop-opacity:0.22"/>
		<stop  offset="0.13" style="stop-color:#000000;stop-opacity:0.49"/>
		<stop  offset="1" style="stop-color:#000000"/>
	</linearGradient>
	<path class="st1" d="M9.6,69.2c14.9,18.2,41.7,20.9,59.9,6.1C83.8,63.6,89,44,82.3,26.8L9.6,69.2z"/>
	<rect x="46" y="34.9" class="st2" width="6.8" height="6.8"/>
	<rect x="56.3" y="34.9" class="st2" width="6.8" height="6.8"/>
	<rect x="25.5" y="44.5" class="st2" width="6.8" height="6.8"/>
	<rect x="35.8" y="44.5" class="st2" width="6.8" height="6.8"/>
	<rect x="46" y="44.5" class="st2" width="6.8" height="6.8"/>
	<rect x="56.3" y="44.5" class="st2" width="6.8" height="6.8"/>
	<rect x="46" y="54" class="st2" width="6.8" height="6.8"/>
	<rect x="56.3" y="54" class="st2" width="6.8" height="6.8"/>
	<path class="st2" d="M69.7,20.9h-10v-4.1c0-1.1-0.9-2.1-2.1-2.1h-0.4c-1.1,0-2.1,0.9-2.1,2.1v4.1h-23v-4.1c0-1.1-0.9-2.1-2.1-2.1
		h-0.4c-1.1,0-2.1,0.9-2.1,2.1v4.1h-8.7c-1.6,0-2.9,1.3-2.9,2.9l0,0v39c0,1.6,1.3,2.9,2.9,2.9l0,0h50.8c1.6,0,2.9-1.3,2.9-2.9v-39
		C72.6,22.2,71.3,20.9,69.7,20.9z M55.1,24v1.4c0,1.1,0.9,2.1,2.1,2.1h0.4c1.1,0,2.1-0.9,2.1-2.1V24c1.2,1.3,1.1,3.2-0.1,4.4
		c-1.3,1.2-3.2,1.1-4.4-0.1C54,27,54,25.2,55.1,24L55.1,24z M27.6,24v1.4c0,1.1,0.9,2.1,2.1,2.1h0.4c1.1,0,2.1-0.9,2.1-2.1
		c0,0,0,0,0,0V24c1.2,1.3,1.1,3.2-0.1,4.4c-1.3,1.2-3.2,1.1-4.4-0.1C26.5,27.1,26.5,25.2,27.6,24z M70.9,62.8c0,0.7-0.5,1.2-1.2,1.2
		H18.9c-0.7,0-1.2-0.5-1.2-1.2V30.7h53.2V62.8z"/>
	<polygon class="st2" points="30.5,53.8 28.9,56 27.4,53.8 25.7,53.8 28.1,57.2 25.7,60.6 27.3,60.6 28.9,58.3 30.6,60.6 32.3,60.6 
		29.8,57.2 32.3,53.8 	"/>
	<polygon class="st2" points="40.9,53.8 39.2,56 37.7,53.8 36,53.8 38.4,57.2 36,60.6 37.6,60.6 39.2,58.3 40.9,60.6 42.6,60.6 
		40.1,57.2 42.6,53.8 	"/>
</g>
</svg>
