<?xml version="1.0" encoding="utf-8"?>
<!-- Generator: Adobe Illustrator 27.2.0, SVG Export Plug-In . SVG Version: 6.00 Build 0)  -->
<svg version="1.1" id="Layer_1" xmlns="http://www.w3.org/2000/svg" xmlns:xlink="http://www.w3.org/1999/xlink" x="0px" y="0px"
	 viewBox="0 0 355 341" style="enable-background:new 0 0 355 341;" xml:space="preserve">
<style type="text/css">
	.st0{fill:#FFFFFF;}
</style>
<g>
	<g>
		<polygon class="st0" points="251.5,165.8 237.5,165.8 237.5,208.5 251.5,182.6 		"/>
		<path class="st0" d="M195.1,176.9v28.8h9.7v-70.9l-17.2-10.1l0.1-0.2l-0.1-0.1l5.5-10.6h-15.4l0.1,12.2v65.2l10.1,5.6v-22.6
			L195.1,176.9z M187.8,139.2l7.3,2.7v20.5l-7.3-2.7V139.2z"/>
		<path class="st0" d="M174.1,116.8l-22.2,6.4l-4.8,1.4v81.6l9.7-6v-26.9l7.8-2.7v24.8l9.4-5.8v-29.8V116.8z M164.7,156.9l-7.8,2.7
			V142l7.8-2.7V156.9z"/>
		<polygon class="st0" points="234,161 234,150.5 227.5,146.8 227.5,134.3 211.1,112.8 211.1,138.7 208.5,137 208,136.7 208,147.5 
			213.2,150.1 213.2,159.8 213.2,214.8 227.5,214.8 227.5,157.4 		"/>
		<polygon class="st0" points="137.9,147.7 137.9,147.7 136,149 136,179.7 126.5,155 110.7,165.1 125.7,198.8 125.7,209.4 
			131.6,209.4 131.5,186.2 136.6,209.4 142,209.4 143.7,208.3 143.7,144.1 		"/>
		<polygon class="st0" points="248,161.2 237.5,147.5 237.5,161.2 		"/>
		<polygon class="st0" points="220.4,233.8 227.8,221.2 213,221.2 		"/>
	</g>
	<path class="st0" d="M255.4,281.6c-9,3.7-18.4,6.1-27.9,7.4c-10,1.3-20.3,1.3-30.3-0.1c-29.8-4.1-56.3-19.5-74.6-43.3
		c-18.6-24.3-26.6-54.3-22.5-84.6c3.3-24.1,13.8-45.7,30.4-63c-2.8,0.9-5.6,1.9-8.3,3c-16.8,6.9-31.6,18.1-42.8,32.5
		c-5.7,7.3-10.4,15.4-13.9,24c-17.7,42.8-4.7,92.8,31.8,121.5l0.5,0.4c0.2,0.1,0.4,0.3,0.6,0.4c18.5,14.2,40.5,23.5,63.6,26.8
		c6.3,0.9,12.8,1.4,19.2,1.4c17.7,0,34.9-3.4,51.3-10.1c14.3-5.8,27.6-14.2,39.1-24.4C266.4,276.6,261,279.3,255.4,281.6z"/>
	<path class="st0" d="M118.6,92.1c9-3.7,18.5-6.2,28.1-7.5c5-0.7,10.1-1,15.1-1c25.3,0,49.2,8.2,69.4,23.9
		c19.2,14.9,32.8,34.8,39.4,57.9c4.7-20.7,2.9-42-5.2-62c-3.5-8.6-8.2-16.7-13.8-24.1c-19.5-25.4-50.4-40.6-82.7-40.6
		c-13.5,0-26.7,2.6-39.1,7.7c-1.4,0.6-2.9,1.2-4.6,2C93.1,62.8,68.2,88.8,55,121.6c-10,25-12.3,52.2-6.9,78.3
		c-0.4-15.8,2.5-31.4,8.5-46.1c3.9-9.4,9-18.2,15.2-26.2C84.1,111.9,100.3,99.6,118.6,92.1z"/>
	<path class="st0" d="M251.8,272.8c34.1-13.9,58.5-45.2,63.8-81.6l0.2-1.4c3.1-23.3,0-47.2-8.9-69c-13.4-32.8-38.6-58.7-71-73
		c-3.8-1.7-7.7-3.2-11.6-4.5c13.5,7.5,25.3,17.7,34.8,30.1c6.2,8.1,11.3,16.9,15.1,26.3c11.4,27.8,11.3,58.5-0.2,86.3
		c-11.7,28.3-33.7,50.2-62,61.7c-13.8,5.6-28.2,8.5-42.9,8.5c-9.1,0-18.1-1.1-26.9-3.3c15.6,14.4,35,23.6,56.3,26.5
		c9.1,1.3,18.6,1.3,27.8,0.1C235,278.4,243.6,276.1,251.8,272.8z"/>
</g>
</svg>
