<?xml version="1.0" encoding="utf-8"?>
<!-- Generator: Adobe Illustrator 23.0.1, SVG Export Plug-In . SVG Version: 6.00 Build 0)  -->
<svg version="1.1" id="a786e588-389a-4355-a6a5-50fc646b3901"
	 xmlns="http://www.w3.org/2000/svg" xmlns:xlink="http://www.w3.org/1999/xlink" x="0px" y="0px" viewBox="0 0 85.2 85.2"
	 style="enable-background:new 0 0 85.2 85.2;" xml:space="preserve">
<style type="text/css">
	.st0{fill:#FBAB18;}
	.st1{opacity:0.18;fill:url(#SVGID_1_);enable-background:new    ;}
	.st2{fill-rule:evenodd;clip-rule:evenodd;fill:#FFFFFF;}
</style>
<title>my-panels</title>
<g>
	<circle class="st0" cx="42.6" cy="42.6" r="42.6"/>
	
		<linearGradient id="SVGID_1_" gradientUnits="userSpaceOnUse" x1="61.2852" y1="9.3788" x2="50.8052" y2="29.3788" gradientTransform="matrix(1 0 0 -1 0 87.19)">
		<stop  offset="0" style="stop-color:#000000;stop-opacity:0.22"/>
		<stop  offset="0.13" style="stop-color:#000000;stop-opacity:0.49"/>
		<stop  offset="1" style="stop-color:#000000"/>
	</linearGradient>
	<path class="st1" d="M9.4,69.3c14.8,18.2,41.7,21,59.9,6.1C83.6,63.8,88.8,44.3,82.1,27L9.4,69.3z"/>
	<path class="st2" d="M27.4,36.4c-0.2-0.6-0.3-1.2-0.4-1.9c0,0-4.2,2.5-5.7,2.5c0,0,2.8-1.4,3.1-2.4c-1.3,0.9-4.2,2.4-5.2,2.3
		c0,0,1.3-0.6,1.5-1.3c-3,0.8-2.9,3.1-3.1,5.5c0,0-0.5-2.6-0.6-3.3c-1.4-4.4,1.8-7.8,5.9-7.9c5.2,0,7.5,3.6,5.8,8.2
		c-0.3,0.8-1.1,3.5-1.1,3.5C27.8,39.9,28.2,38,27.4,36.4L27.4,36.4z M35.8,56.3l-4.5-7.8c-1.6-0.7-3.2-1.4-4.8-2.2l-2.1,6.3l-0.6-4
		l0,0c0.3-0.3,0.5-0.7,0.6-1.1c0-0.5-1-0.1-1.5-0.1s-1.5-0.4-1.4,0.1c0.1,0.4,0.2,0.8,0.5,1.1h0.1l-0.6,4.3L19,46.2
		c-6.3,3.5-9.4,1.5-9.4,10.1h14.8c0.6-1.9,1.9-3.4,3.6-4.4c0.4-0.3,1.6-0.8,2.3-1.1c-0.8-0.3-1.5-0.9-2-1.7c1,0,2.1-0.2,3-0.6
		L35.8,56.3z"/>
	<path class="st2" d="M52.9,37.9h7l0.3-3.3l0.3,3.3H61l0.3-3.6l0.2,3.6h0.8l0.2-2.5l0.2,2.5H64c0.1,0,0.3-8.4-5.8-7.9
		C51.6,30.3,52.7,37.9,52.9,37.9L52.9,37.9z"/>
	<path class="st2" d="M58.6,56.2h13.3c-0.3-3.9-2.3-5.5-6.1-7.5c-1.1-2.4-1.6-6.8-1.7-9.2c-0.3,0.5-0.5,1.3-1,1.3
		c-0.5,1.3-1.2,2.5-2.2,3.5c0.1,0.8,0.3,1.5,0.6,2.2c-0.3,0.3-0.5,0.8-0.8,1.1c-1.6,1.3-3.9,1-5.2-0.6c-0.1-0.2-0.2-0.3-0.3-0.5
		c0.2-0.7,0.4-1.5,0.5-2.2c-1-1-1.8-2.2-2.2-3.5c-0.3,0-0.5-0.8-0.8-1.3c0,3.1-0.5,6.1-1.5,9c0.4,0.3,0.9,0.5,1.4,0.5
		c0.4,0,0.8,0,1.2-0.2c0,0,0,1.7-2.2,2C58.6,52.9,58.3,55.9,58.6,56.2z"/>
	<path class="st2" d="M44.4,45c0,1,0.2,1.9,0.6,2.8c-0.2,0.4-0.6,0.8-0.8,1.2c-1.9,1.7-4.9,1.5-6.6-0.4c-0.2-0.2-0.4-0.5-0.5-0.8
		c0.4-0.9,0.7-1.8,0.8-2.8c-1.5-1.2-2.6-2.9-3-4.7C34.5,38.5,36,37,36.4,35c1.4,0,2.8-0.3,4.1-0.8c-0.5,0.6-1.3,1.1-2.2,1.2
		c1.6,0,3.1-0.4,4.3-1.4c0,0.4-0.4,0.8-0.8,1.2c1.3-0.4,2.5-1.1,3.3-2.2C48.2,36.7,47.8,42,44.4,45L44.4,45z M29.4,49.5
		c0.6,0.5,1.4,0.9,2.2,1c-3.9,2.6-6.3,2.8-7.1,9.5h34.1c-0.8-8-5.8-7.4-8.4-9.5c1.1,0.1,2.2-0.3,2.9-1.1c-0.9,0.2-1.8,0-2.5-0.6
		c-0.9-0.6-1.5-1.6-1.6-2.6c-0.4-1.6-0.6-3.3-0.6-4.9c-0.2-1.8,0-4.1-0.2-6.7c-0.4-4.7-2.5-7.7-7.7-7.7c-3,0.1-5.6,1.8-6.9,4.5
		c-2,5.7,0.2,5.9,0,10.2c0,1.6-0.2,3.2-0.4,4.7C32.8,48.2,31.2,49.5,29.4,49.5L29.4,49.5z"/>
	<path class="st2" d="M45.6,37.6c0.1,0.6-0.1,1.2-0.6,1.6c-0.2,0.2-0.8,0.2-1.2,0.2c-0.8,0-1.4-0.2-1.6-0.6c-0.4-0.5-0.5-1-0.4-1.6
		c0-0.2,0.2-0.4,1.6-0.6h0.8c0.8,0,1.2,0.2,1.2,0.4C45.6,37.1,45.7,37.3,45.6,37.6z M39.7,38.7c-0.2,0.4-0.8,0.6-1.6,0.8
		c-0.4,0-0.8-0.2-1.2-0.2c-0.5-0.4-0.8-1-0.8-1.6c0-0.2,0.1-0.4,0.2-0.6c0.2-0.4,0.4-0.4,1.4-0.4h0.6c1.6,0,1.8,0.2,1.8,0.4
		C40.2,37.7,40,38.3,39.7,38.7z M46.6,36.4l-0.4,0.2c0-0.1-0.1-0.2-0.2-0.2c0,0,0,0,0,0c-0.9-0.2-1.8-0.3-2.8-0.2
		c-0.6,0-1,0.2-1.4,0.2c0,0.1-0.1,0.2-0.2,0.2c0,0,0,0,0,0c-0.1,0.1-0.2,0.2-0.4,0.2h-0.6c-0.2,0-0.4,0-0.4-0.2h-0.4
		c-0.4-0.2-0.8-0.3-1.2-0.2h-0.2c-0.9-0.1-1.7-0.1-2.6,0c0,0.2-0.2,0.2-0.4,0.2h-0.2l-0.1,0.8h0.3c0,0.1,0.1,0.2,0.2,0.2
		c0,0,0,0,0,0v0.2c0.4,1.4,0.4,1.6,1,1.8c0.2,0.2,0.8,0.2,1.4,0.2c0.5,0.1,1-0.1,1.4-0.4c0.8-0.4,1-1.6,1.2-1.8
		c0-0.1,0.1-0.2,0.2-0.2c0,0,0,0,0,0c0.4,0,0.4,0.2,0.4,0.2s0.4,1.4,1.2,1.8c0.5,0.3,1,0.5,1.6,0.4c0.5,0,0.9-0.2,1.4-0.4
		c0.4-0.2,0.6-0.4,0.8-1.8v-0.2l0.4-0.2L46.6,36.4z"/>
</g>
</svg>
