<?xml version="1.0" encoding="utf-8"?>
<!-- Generator: Adobe Illustrator 23.0.1, SVG Export Plug-In . SVG Version: 6.00 Build 0)  -->
<svg version="1.1" id="f1d3f59d-0662-4571-a04a-d0946d8bc204"
	 xmlns="http://www.w3.org/2000/svg" xmlns:xlink="http://www.w3.org/1999/xlink" x="0px" y="0px" viewBox="0 0 85.2 85.2"
	 style="enable-background:new 0 0 85.2 85.2;" xml:space="preserve">
<style type="text/css">
	.st0{fill:#208E9D;}
	.st1{opacity:0.18;fill:url(#SVGID_1_);enable-background:new    ;}
	.st2{fill:#FFFFFF;}
</style>
<title>my-payments</title>
<g>
	<circle class="st0" cx="42.6" cy="42.6" r="42.6"/>
	
		<linearGradient id="SVGID_1_" gradientUnits="userSpaceOnUse" x1="61.1945" y1="9.6323" x2="50.7045" y2="29.6323" gradientTransform="matrix(1 0 0 -1 0 87.19)">
		<stop  offset="0" style="stop-color:#000000;stop-opacity:0.22"/>
		<stop  offset="0.13" style="stop-color:#000000;stop-opacity:0.49"/>
		<stop  offset="1" style="stop-color:#000000"/>
	</linearGradient>
	<path class="st1" d="M9.3,69.1c14.8,18.2,41.6,21,59.9,6.2C83.6,63.6,88.7,44,82,26.8L9.3,69.1z"/>
	<path class="st2" d="M21.9,19.4v48.4h38c1.7,0.1,3.1-1.1,3.2-2.8V19.4H21.9z M60.3,62.6c-0.1,1.7-1.5,2.9-3.2,2.8c0,0,0,0,0,0H24.7
		V21.8h35.7V62.6z"/>
	<path class="st2" d="M32.9,53l2.8-4.3c2.2,1.7,4.1,2.5,6.2,2.5c2.5,0,3.5-1,3.5-3c0-4.4-11.4-4.4-11.4-12.2c0-5,3.5-8.2,9-8.2
		c3.1,0,6.2,1.3,8.2,3.7l-3.2,3.6C46.4,33.8,45,33,43.2,33c-2.1,0-3.2,0.8-3.2,2.8c0,4.1,11.4,3.8,11.4,12c0,5-3.3,8.5-9.6,8.5
		C38.6,56.3,35.4,55.1,32.9,53z M40.5,23.7h4.2v6.2h-4.2L40.5,23.7z M40.5,53.8h4.2v6.8h-4.2L40.5,53.8z"/>
</g>
</svg>
