<?xml version="1.0" encoding="utf-8"?>
<!-- Generator: Adobe Illustrator 26.0.3, SVG Export Plug-In . SVG Version: 6.00 Build 0)  -->
<svg version="1.1" id="Layer_1" xmlns="http://www.w3.org/2000/svg" xmlns:xlink="http://www.w3.org/1999/xlink" x="0px" y="0px"
	 viewBox="0 0 70 70" style="enable-background:new 0 0 70 70;" xml:space="preserve">
<style type="text/css">
	.st0{fill:#3D65AF;}
	.st1{fill:#3A5A9B;}
	.st2{fill:#FFFFFF;}
</style>
<g>
	<g>
		<path class="st0" d="M70,35c0,19.3-15.7,35-35,35c-11.2,0-21.1-5.2-27.5-13.3C2.8,50.7,0,43.2,0,35C0,15.7,15.7,0,35,0
			c14.2,0,26.4,8.5,31.9,20.6C68.9,25,70,29.9,70,35z"/>
		<path class="st1" d="M70,35c0,19.3-15.7,35-35,35c-11.2,0-21.1-5.2-27.5-13.3l59.4-36C68.9,25,70,29.9,70,35z"/>
	</g>
</g>
<g>
	<path class="st2" d="M149.2,11.9c11,0,22,0,33.1,0c0,0,0,0.1,0.1,0.1c1.8,0.6,2.6,1.6,2.6,3.5c0,2.8,0,5.6,0,8.5c0,0.2,0,0.3,0,0.6
		c0.2-0.2,0.2-0.4,0.3-0.5c0.7-1.1,1.3-2.3,2-3.4c0.8-1.3,2.1-1.8,3.6-1.6c1.5,0.2,2.4,1.1,2.9,2.5c0.4,1.1,0.1,2.1-0.5,3.1
		c-2.7,4.7-5.4,9.3-8.1,14c-0.1,0.3-0.2,0.6-0.2,0.9c0,5.9,0,11.7,0,17.6c0,2.1-1.4,3.5-3.5,3.5c-10.5,0-21,0-31.4,0
		c-0.2,0-0.5,0-0.7,0c-1.7-0.3-2.8-1.6-2.8-3.4c0-13.2,0-26.3,0-39.5c0-0.8,0-1.6,0-2.5c0-1.5,0.9-2.7,2.3-3.1
		C149,12,149.1,12,149.2,11.9z M183,42.5C183,42.5,183,42.5,183,42.5c-0.2,0.1-0.2,0.2-0.3,0.4c-1.1,1.8-2.1,3.6-3.2,5.5
		c-0.1,0.3-0.4,0.5-0.6,0.7c-1.7,1.3-3.4,2.6-5.1,3.9c-0.5,0.4-0.9,0.5-1.3,0.2c-0.5-0.3-0.5-0.7-0.4-1.2c0.2-1.5,0.4-3.1,0.6-4.7
		c0.1-1.3,0.3-2.5,1.1-3.6c0-0.1,0.1-0.1,0.1-0.3c-0.2,0-0.4,0-0.6,0c-4,0-8,0-12,0c-0.2,0-0.4,0-0.5,0c-0.5-0.1-0.8-0.5-0.8-0.9
		c0-0.5,0.3-0.9,0.8-1c0.2,0,0.3,0,0.5,0c4.4,0,8.8,0,13.2,0c0.3,0,0.5-0.1,0.7-0.4c2.5-4.3,5-8.6,7.5-12.9c0.1-0.2,0.2-0.5,0.2-0.8
		c0-4,0-8,0-12.1c0-1.1-0.5-1.6-1.6-1.6c-10.5,0-20.9,0-31.4,0c-1.1,0-1.6,0.5-1.6,1.6c0,13.9,0,27.8,0,41.6c0,1.1,0.5,1.6,1.6,1.6
		c10.5,0,20.9,0,31.4,0c1.1,0,1.6-0.5,1.6-1.6c0-2.2,0-4.3,0-6.5C183,47.9,183,45.2,183,42.5z M187.4,24.2c-4,7-8.1,14-12.1,21
		c1,0.6,2,1.1,3,1.7c4-7,8.1-14,12.1-20.9C189.3,25.3,188.4,24.7,187.4,24.2z M191.3,24.2c0.5-0.8,1-1.5,0.5-2.4
		c-0.3-0.6-0.9-0.9-1.5-0.9c-1,0-1.5,0.8-1.9,1.6C189.3,23.1,190.3,23.6,191.3,24.2z M174.7,47c-0.1,1.1-0.3,2.1-0.4,3.2
		c0.9-0.7,1.7-1.3,2.6-2C176.2,47.8,175.5,47.4,174.7,47z"/>
	<path class="st2" d="M155.4,27.9c0.6,0,1.2,0,1.8,0c0.7,0,1.1,0.3,1.1,1c0,1.2,0,2.5,0,3.7c0,0.6-0.4,1-1,1c-1.2,0-2.4,0-3.6,0
		c-0.7,0-1-0.4-1-1c0-1.2,0-2.4,0-3.7c0-0.7,0.4-1,1.1-1C154.2,27.9,154.8,27.9,155.4,27.9z M156.3,31.7c0-0.6,0-1.2,0-1.8
		c-0.6,0-1.2,0-1.8,0c0,0.6,0,1.2,0,1.8C155.1,31.7,155.7,31.7,156.3,31.7z"/>
	<path class="st2" d="M155.5,43.5c-0.6,0-1.2,0-1.8,0c-0.7,0-1.1-0.3-1.1-1c0-1.2,0-2.5,0-3.7c0-0.6,0.4-1,1-1c1.2,0,2.4,0,3.6,0
		c0.7,0,1,0.3,1,1c0,1.2,0,2.4,0,3.7c0,0.7-0.4,1-1.1,1C156.6,43.5,156,43.5,155.5,43.5z M154.5,39.7c0,0.7,0,1.3,0,1.9
		c0.6,0,1.2,0,1.8,0c0-0.6,0-1.2,0-1.9C155.7,39.7,155.1,39.7,154.5,39.7z"/>
	<path class="st2" d="M155.4,53.3c-0.6,0-1.2,0-1.8,0c-0.6,0-1-0.3-1-1c0-1.3,0-2.5,0-3.8c0-0.6,0.4-0.9,1-0.9c1.2,0,2.5,0,3.7,0
		c0.6,0,1,0.3,1,0.9c0,1.3,0,2.5,0,3.8c0,0.6-0.4,0.9-1,1C156.6,53.3,156,53.3,155.4,53.3z M154.5,51.4c0.6,0,1.2,0,1.8,0
		c0-0.6,0-1.2,0-1.8c-0.6,0-1.2,0-1.8,0C154.5,50.2,154.5,50.8,154.5,51.4z"/>
	<path class="st2" d="M167.4,33.6c-2.1,0-4.1,0-6.2,0c-0.6,0-1-0.4-1-0.9c0-0.5,0.4-0.9,1-1c0.1,0,0.3,0,0.4,0c3.4,0,6.7,0,10.1,0
		c0.7,0,1.3,0,2,0c0.6,0,1.1,0.4,1.1,0.9c0,0.6-0.4,1-1.1,1C171.6,33.6,169.5,33.6,167.4,33.6z"/>
	<path class="st2" d="M165.2,51.4c1.3,0,2.6,0,3.9,0c0.7,0,1.1,0.4,1.1,0.9c0,0.6-0.4,1-1.2,1c-2.6,0-5.2,0-7.8,0
		c-0.6,0-1-0.3-1.1-0.9c-0.1-0.5,0.3-0.9,0.7-1c0.2,0,0.3,0,0.5,0C162.6,51.4,163.9,51.4,165.2,51.4z"/>
	<path class="st2" d="M177.6,31.7c0.5,0,0.9,0.4,0.9,0.9c0,0.5-0.4,1-1,1c-0.5,0-0.9-0.4-0.9-1C176.6,32.1,177.1,31.7,177.6,31.7z"
		/>
</g>
<rect x="149.8" y="17.2" style="fill:none;" width="57.5" height="32.7"/>
<text transform="matrix(1 0 0 1 149.7868 22.6618)" class="st2" style="font-family:'Calibri-Bold'; font-size:8px;">PRACTICE</text>
<g>
	<path class="st2" d="M17.8,10.7c11,0,22,0,33.1,0c0,0,0,0.1,0.1,0.1c1.8,0.6,2.6,1.6,2.6,3.5c0,2.8,0,5.6,0,8.5c0,0.2,0,0.3,0,0.6
		c0.2-0.2,0.2-0.4,0.3-0.5c0.7-1.1,1.3-2.3,2-3.4c0.8-1.3,2.1-1.8,3.6-1.6c1.5,0.2,2.4,1.1,2.9,2.5c0.4,1.1,0.1,2.1-0.5,3.1
		c-2.7,4.7-5.4,9.3-8.1,14c-0.1,0.3-0.2,0.6-0.2,0.9c0,5.9,0,11.7,0,17.6c0,2.1-1.4,3.5-3.5,3.5c-10.5,0-21,0-31.4,0
		c-0.2,0-0.5,0-0.7,0c-1.7-0.3-2.8-1.6-2.8-3.4c0-13.2,0-26.3,0-39.5c0-0.8,0-1.6,0-2.5c0-1.5,0.9-2.7,2.3-3.1
		C17.6,10.8,17.7,10.7,17.8,10.7z M51.6,41.3C51.6,41.3,51.6,41.3,51.6,41.3c-0.2,0.1-0.2,0.2-0.3,0.4c-1.1,1.8-2.1,3.6-3.2,5.5
		c-0.1,0.3-0.4,0.5-0.6,0.7c-1.7,1.3-3.4,2.6-5.1,3.9c-0.5,0.4-0.9,0.5-1.3,0.2c-0.5-0.3-0.5-0.7-0.4-1.2c0.2-1.5,0.4-3.1,0.6-4.7
		c0.1-1.3,0.3-2.5,1.1-3.6c0-0.1,0.1-0.1,0.1-0.3c-0.2,0-0.4,0-0.6,0c-4,0-8,0-12,0c-0.2,0-0.4,0-0.5,0c-0.5-0.1-0.8-0.5-0.8-0.9
		c0-0.5,0.3-0.9,0.8-1c0.2,0,0.3,0,0.5,0c4.4,0,8.8,0,13.2,0c0.3,0,0.5-0.1,0.7-0.4c2.5-4.3,5-8.6,7.5-12.9c0.1-0.2,0.2-0.5,0.2-0.8
		c0-4,0-8,0-12.1c0-1.1-0.5-1.6-1.6-1.6c-10.5,0-20.9,0-31.4,0c-1.1,0-1.6,0.5-1.6,1.6c0,13.9,0,27.8,0,41.6c0,1.1,0.5,1.6,1.6,1.6
		c10.5,0,20.9,0,31.4,0c1.1,0,1.6-0.5,1.6-1.6c0-2.2,0-4.3,0-6.5C51.6,46.7,51.6,44,51.6,41.3z M56,22.9c-4,7-8.1,14-12.1,21
		c1,0.6,2,1.1,3,1.7c4-7,8.1-14,12.1-20.9C57.9,24.1,57,23.5,56,22.9z M59.9,23c0.5-0.8,1-1.5,0.5-2.4c-0.3-0.6-0.9-0.9-1.5-0.9
		c-1,0-1.5,0.8-1.9,1.6C57.9,21.8,58.9,22.4,59.9,23z M43.3,45.8c-0.1,1.1-0.3,2.1-0.4,3.2c0.9-0.7,1.7-1.3,2.6-2
		C44.7,46.6,44.1,46.2,43.3,45.8z"/>
	<path class="st2" d="M24,26.6c0.6,0,1.2,0,1.8,0c0.7,0,1.1,0.3,1.1,1c0,1.2,0,2.5,0,3.7c0,0.6-0.4,1-1,1c-1.2,0-2.4,0-3.6,0
		c-0.7,0-1-0.4-1-1c0-1.2,0-2.4,0-3.7c0-0.7,0.4-1,1.1-1C22.8,26.6,23.4,26.6,24,26.6z M24.9,30.4c0-0.6,0-1.2,0-1.8
		c-0.6,0-1.2,0-1.8,0c0,0.6,0,1.2,0,1.8C23.7,30.4,24.3,30.4,24.9,30.4z"/>
	<path class="st2" d="M24,42.2c-0.6,0-1.2,0-1.8,0c-0.7,0-1.1-0.3-1.1-1c0-1.2,0-2.5,0-3.7c0-0.6,0.4-1,1-1c1.2,0,2.4,0,3.6,0
		c0.7,0,1,0.3,1,1c0,1.2,0,2.4,0,3.7c0,0.7-0.4,1-1.1,1C25.2,42.2,24.6,42.2,24,42.2z M23.1,38.4c0,0.7,0,1.3,0,1.9
		c0.6,0,1.2,0,1.8,0c0-0.6,0-1.2,0-1.9C24.3,38.4,23.7,38.4,23.1,38.4z"/>
	<path class="st2" d="M24,52.1c-0.6,0-1.2,0-1.8,0c-0.6,0-1-0.3-1-1c0-1.3,0-2.5,0-3.8c0-0.6,0.4-0.9,1-0.9c1.2,0,2.5,0,3.7,0
		c0.6,0,1,0.3,1,0.9c0,1.3,0,2.5,0,3.8c0,0.6-0.4,0.9-1,1C25.2,52.1,24.6,52.1,24,52.1z M23.1,50.2c0.6,0,1.2,0,1.8,0
		c0-0.6,0-1.2,0-1.8c-0.6,0-1.2,0-1.8,0C23.1,48.9,23.1,49.5,23.1,50.2z"/>
	<path class="st2" d="M36,32.3c-2.1,0-4.1,0-6.2,0c-0.6,0-1-0.4-1-0.9c0-0.5,0.4-0.9,1-1c0.1,0,0.3,0,0.4,0c3.4,0,6.7,0,10.1,0
		c0.7,0,1.3,0,2,0c0.6,0,1.1,0.4,1.1,0.9c0,0.6-0.4,1-1.1,1C40.2,32.3,38.1,32.3,36,32.3z"/>
	<path class="st2" d="M36.5,22.8c-0.3,0-0.6,0-0.9,0c-0.5,0-0.9-0.4-0.9-0.9c0-0.5,0.4-0.9,1-1c0.5,0,1,0,1.5,0
		c0.4,0,0.7-0.1,0.7-0.5c0-0.4-0.2-0.6-0.7-0.6c-1.4-0.1-2.5-1.2-2.4-2.6c0-1.4,1.1-2.4,2.6-2.4c0.3,0,0.5,0,0.8,0
		c0.7,0,1.1,0.4,1.1,0.9c0,0.6-0.4,1-1.1,1c-0.3,0-0.5,0-0.8,0c-0.4,0-0.7,0.1-0.7,0.6c0,0.4,0.3,0.6,0.7,0.6c1.9,0.1,3,2,2.1,3.6
		c-0.4,0.8-1.2,1.2-2.1,1.3C37,22.9,36.7,22.8,36.5,22.8z"/>
	<path class="st2" d="M30.6,17.9c0.4,0,0.8,0,1.2,0c0.6,0,1,0.4,1,0.9c0,0.6-0.4,0.9-1,1c-0.4,0-0.7,0-1.2,0c0,0.3,0,0.6,0,0.8
		c0,0.1,0.2,0.3,0.3,0.3c0.4,0,0.8,0,1.2,0c0.6,0,1,0.4,1,1c0,0.5-0.4,0.9-1,0.9c-0.5,0-0.9,0-1.4,0c-1.1,0-2-0.8-2-1.9
		c-0.1-1.4-0.1-2.8,0-4.2c0-1,0.9-1.8,2-1.9c0.5,0,0.9,0,1.4,0c0.6,0,1,0.4,1,0.9c0,0.5-0.4,0.9-1,1c-0.4,0-0.7,0-1.1,0
		c-0.4,0-0.5,0.1-0.5,0.5C30.6,17.5,30.6,17.7,30.6,17.9z"/>
	<path class="st2" d="M24.2,16.8c-0.2,0-0.4,0-0.6,0c-0.6,0-1-0.4-1-1c0-0.5,0.4-0.9,1-0.9c1,0,2.1,0,3.1,0c0.6,0,0.9,0.4,0.9,0.9
		c0,0.5-0.4,0.9-1,1c-0.2,0-0.3,0-0.6,0c0,0.2,0,0.4,0,0.5c0,1.5,0,2.9,0,4.4c0,0.3-0.1,0.6-0.2,0.8c-0.2,0.3-0.6,0.5-1,0.3
		c-0.4-0.1-0.7-0.5-0.7-0.9c0-1.5,0-3,0-4.6C24.2,17.1,24.2,17,24.2,16.8z"/>
	<path class="st2" d="M42.5,16.8c-0.3,0-0.5,0-0.7,0c-0.5,0-0.9-0.4-0.9-0.9c0-0.5,0.4-0.9,0.9-1c1.1,0,2.1,0,3.2,0
		c0.5,0,0.9,0.4,0.9,0.9c0,0.5-0.4,0.9-0.9,0.9c-0.2,0-0.4,0-0.6,0c0,0.2,0,0.4,0,0.5c0,1.5,0,2.9,0,4.4c0,0.7-0.4,1.1-0.9,1.1
		c-0.6,0-1-0.4-1-1.2c0-1.5,0-2.9,0-4.4C42.5,17.1,42.5,17,42.5,16.8z"/>
	<path class="st2" d="M33.8,50.2c1.3,0,2.6,0,3.9,0c0.7,0,1.1,0.4,1.1,0.9c0,0.6-0.4,1-1.2,1c-2.6,0-5.2,0-7.8,0
		c-0.6,0-1-0.3-1.1-0.9c-0.1-0.5,0.3-0.9,0.7-1c0.2,0,0.3,0,0.5,0C31.2,50.2,32.5,50.2,33.8,50.2z"/>
	<path class="st2" d="M46.2,30.4c0.5,0,0.9,0.4,0.9,0.9c0,0.5-0.4,1-1,1c-0.5,0-0.9-0.4-0.9-1C45.2,30.9,45.6,30.4,46.2,30.4z"/>
</g>
</svg>
