<?xml version="1.0" encoding="utf-8"?>
<!-- Generator: Adobe Illustrator 23.0.1, SVG Export Plug-In . SVG Version: 6.00 Build 0)  -->
<svg version="1.1" id="bb5c0a08-3865-4282-b48f-d5b2fa5bb68d"
	 xmlns="http://www.w3.org/2000/svg" xmlns:xlink="http://www.w3.org/1999/xlink" x="0px" y="0px" viewBox="0 0 85.2 85.2"
	 style="enable-background:new 0 0 85.2 85.2;" xml:space="preserve">
<style type="text/css">
	.st0{fill:#FBAB18;}
	.st1{opacity:0.18;fill:url(#SVGID_1_);enable-background:new    ;}
	.st2{fill:#FFFFFF;}
</style>
<title>My role-play sessions</title>
<circle class="st0" cx="42.6" cy="42.6" r="42.6"/>
<linearGradient id="SVGID_1_" gradientUnits="userSpaceOnUse" x1="61.6971" y1="9.1502" x2="51.2171" y2="29.1502" gradientTransform="matrix(1 0 0 -1 0 87.19)">
	<stop  offset="0" style="stop-color:#000000;stop-opacity:0.22"/>
	<stop  offset="0.13" style="stop-color:#000000;stop-opacity:0.49"/>
	<stop  offset="1" style="stop-color:#000000"/>
</linearGradient>
<path class="st1" d="M9.8,69.6c14.8,18.2,41.6,21,59.9,6.2c14.4-11.7,19.5-31.3,12.8-48.5L9.8,69.6z"/>
<rect x="43.9" y="36.2" class="st2" width="6.8" height="6.8"/>
<rect x="54.1" y="36.2" class="st2" width="6.8" height="6.8"/>
<rect x="23.4" y="45.8" class="st2" width="6.8" height="6.8"/>
<rect x="33.6" y="45.8" class="st2" width="6.8" height="6.8"/>
<rect x="43.9" y="45.8" class="st2" width="6.8" height="6.8"/>
<rect x="54.1" y="45.8" class="st2" width="6.8" height="6.8"/>
<rect x="43.9" y="55.3" class="st2" width="6.8" height="6.8"/>
<rect x="54.1" y="55.3" class="st2" width="6.8" height="6.8"/>
<path class="st2" d="M67.6,22.2h-10V18c0-1.1-0.9-2.1-2.1-2.1h-0.4C53.9,16,53,16.9,53,18v4.1H30V18c0-1.1-0.9-2.1-2.1-2.1h-0.4
	c-1.1,0-2.1,0.9-2.1,2.1v4.1h-8.7c-1.6,0-2.9,1.3-2.9,2.9v39c0,1.6,1.3,2.9,2.9,2.9h50.8c1.6,0,2.9-1.3,2.9-2.9v-39
	C70.5,23.5,69.2,22.2,67.6,22.2z M53,25.3v1.4c0,1.1,0.9,2.1,2.1,2.1h0.4c1.1,0,2.1-0.9,2.1-2.1v-1.4c1.2,1.3,1.1,3.2-0.1,4.4
	s-3.2,1.1-4.4-0.1C51.9,28.3,51.9,26.5,53,25.3L53,25.3z M25.4,25.3v1.4c0,1.1,0.9,2.1,2.1,2.1h0.4c1.1,0,2.1-0.9,2.1-2.1v-1.4
	c0.5,0.6,0.8,1.3,0.8,2.1c0,1.7-1.4,3.1-3.1,3.1s-3.1-1.4-3.1-3.1C24.6,26.6,24.9,25.8,25.4,25.3L25.4,25.3z M68.8,64.1
	c0,0.7-0.5,1.2-1.2,1.2H16.7c-0.7,0-1.2-0.5-1.2-1.2V32h53.3V64.1z"/>
<polygon class="st2" points="28.4,55.1 26.8,57.3 25.3,55.1 23.6,55.1 25.9,58.5 23.6,61.9 25.2,61.9 26.8,59.6 28.5,61.9 
	30.1,61.9 27.7,58.5 30.1,55.1 "/>
<polygon class="st2" points="38.7,55.1 37.1,57.4 35.6,55.1 33.9,55.1 36.3,58.5 33.9,61.9 35.5,61.9 37.1,59.6 38.8,61.9 
	40.4,61.9 38,58.5 40.4,55.1 "/>
</svg>
